# AST/ASF file generated using VICON BodyLanguage
# -----------------------------------------------
:version 1.10
:name VICON
:units
  mass 1.0
  length 0.45
  angle deg
:documentation
   .ast/.asf automatically generated from VICON data using
   VICON BodyBuilder and BodyLanguage model FoxedUp or BRILLIANT.MOD
:root
   order TX TY TZ RX RY RZ
   axis XYZ
   position 0 0 0  
   orientation 0 0 0 
:bonedata
  begin
     id 1 
     name lhipjoint
     direction 0.543289 -0.788407 0.288535 
     length 2.57127 
     axis 0 0 0  XYZ
  end
  begin
     id 2 
     name lfemur
     direction 0.34202 -0.939693 0  
     length 8.47298  
     axis 0 0 20  XYZ
    dof rx ry rz
    limits (-160.0 20.0)
           (-70.0 70.0)
           (-60.0 70.0)
  end
  begin
     id 3 
     name ltibia
     direction 0.34202 -0.939693 0   
     length 8.13367   
     axis 0 0 20   XYZ
    dof rx
    limits (-10.0 170.0)
  end
  begin
     id 4 
     name lfoot
     direction 0.114037 -0.313314 0.942778   
     length 2.67113   
     axis -90 7.62852e-016 20   XYZ
    dof rx rz
    limits (-45.0 90.0)
           (-70.0 20.0)
  end
  begin
     id 5 
     name ltoes
     direction 1.536e-011 -4.21847e-011 1   
     length 1.32217   
     axis -90 7.62852e-016 20   XYZ
    dof rx
    limits (-90.0 20.0)
  end
  begin
     id 6 
     name rhipjoint
     direction -0.571293 -0.770752 0.282074   
     length 2.63017  
     axis 0 0 0  XYZ 
  end
  begin
     id 7 
     name rfemur
     direction -0.34202 -0.939693 0   
     length 8.60885   
     axis 0 0 -20   XYZ
    dof rx ry rz
    limits (-160.0 20.0)
           (-70.0 70.0)
           (-70.0 60.0)
  end
  begin
     id 8 
     name rtibia
     direction -0.34202 -0.939693 0   
     length 8.07673   
     axis 0 0 -20   XYZ
    dof rx
    limits (-10.0 170.0)
 end
 begin
     id 9 
     name rfoot
     direction -0.121336 -0.333368 0.934956   
     length 2.81602  
     axis -90 -7.62852e-016 -20   XYZ
    dof rx rz
    limits (-45.0 90.0)
           (-20.0 70.0)
  end
  begin
     id 10 
     name rtoes
     direction -1.53491e-011 -4.21808e-011 1   
     length 1.38905   
     axis -90 -7.62852e-016 -20   XYZ
    dof rx
    limits (-90.0 20.0)
  end
  begin
     id 11 
     name lowerback
     direction 0.0136776 0.999869 -0.00861835   
     length 2.14087   
     axis 0 0 0   XYZ
    dof rx ry rz
    limits (-20.0 45.0)
           (-30.0 30.0)
           (-30.0 30.0)
  end
  begin
     id 12 
     name upperback
     direction -0.00789158 0.999804 0.0181308   
     length 2.14151   
     axis 0 0 0   XYZ
    dof rx ry rz
    limits (-20.0 45.0)
           (-30.0 30.0)
           (-30.0 30.0)
  end
  begin
     id 13 
     name thorax
     direction -0.0135231 0.999666 0.0220247   
     length 2.13644   
     axis 0 0 0   XYZ
    dof rx ry rz
    limits (-20.0 45.0)
           (-30.0 30.0)
           (-30.0 30.0)
  end
  begin
     id 14 
     name lowerneck
     direction -0.0392259 0.997317 0.0618018   
     length 1.65045   
     axis 0 0 0   XYZ
    dof rx ry rz
    limits (-20.0 45.0)
           (-30.0 30.0)
           (-30.0 30.0)
  end
  begin
     id 15 
     name upperneck
     direction 0.0765547 0.994276 -0.0745319   
     length 1.66045   
     axis 0 0 0   XYZ
    dof rx ry rz
    limits (-20.0 45.0)
           (-30.0 30.0)
           (-30.0 30.0)
  end
  begin
     id 16
     name head
     direction 0.0241564 0.999031 -0.036785  
     length 1.66594  
     axis 0 0 0   XYZ
    dof rx ry rz
    limits (-20.0 45.0)
           (-30.0 30.0)
           (-30.0 30.0)
  end
  begin
     id 17 
     name lclavicle
     direction 0.967398 0.249018 0.0461573  
     length 3.75176  
     axis 0 0 0   XYZ
    dof ry rz
    limits (-20.0 10.0)
           (0.0 20.0)
  end
  begin
     id 18 
     name lhumerus
     direction 1 -4.48963e-011 -3.05005e-027   
     length 5.93342   
     axis 180 -30 -90   XYZ
    dof rx ry rz
    limits (-60.0 90.0)
           (-90.0 90.0)
           (-90.0 90.0)
  end
  begin
     id 19
     name lradius
     direction 1 -4.48957e-011 1.07006e-026   
     length 3.94763   
     axis 180 -30 -90   XYZ
    dof rx
    limits (-10.0 170.0)
  end
  begin
     id 20
     name lwrist
     direction 1 -4.48978e-011 1.92422e-026   
     length 1.97382   
     axis -1.18182e-014 90 90   XYZ
    dof ry
    limits (-180.0 0.0)
 end
  begin
     id 21 
     name lhand
     direction 1 -4.48931e-011 3.84844e-026   
     length 0.560187   
     axis -2.45563e-014 90 90   XYZ
    dof rx rz
    limits (-90.0 90.0)
           (-45.0 45.0)
  end
  begin
     id 22 
     name lfingers
     direction 1 -4.48952e-011 7.69687e-026   
     length 0.451637   
     axis -4.91126e-014 90 90   XYZ
    dof rx
    limits (0.0 90.0)
  end
  begin
     id 23
     name lthumb
     direction 0.707107 -6.34901e-011 0.707107   
     length 0.648463   
     axis -90 45 2.85299e-015   XYZ
    dof rx rz
    limits (-45.0 45.0)
           (-45.0 45.0)
  end
  begin
     id 24 
     name rclavicle
     direction -0.965946 0.258716 0.00371831   
     length 3.63667  
     axis 0 0 0   XYZ 
    dof ry rz
    limits (-10.0 20.0)
           (-20.0 0.0)
  end
  begin
     id 25 
     name rhumerus
     direction -1 -4.48966e-011 -1.78361e-028  
     length 6.28647   
     axis 180 30 90   XYZ
    dof rx ry rz
    limits (-90.0 60.0)
           (-90.0 90.0)
           (-90.0 90.0)
  end
  begin
     id 26 
     name rradius
     direction -1 -4.48961e-011 1.05248e-026   
     length 3.81645   
     axis 180 30 90   XYZ
    dof rx
    limits (-10.0 170.0)
  end
  begin
     id 27 
     name rwrist
     direction -1 -4.48979e-011 1.92422e-026   
     length 1.90822   
     axis -1.18182e-014 -90 -90   XYZ
    dof ry
    limits (-180.0 0.0)
  end
  begin
     id 28
     name rhand
     direction -1 -4.48937e-011 3.84844e-026   
     length 0.646185   
     axis -2.45563e-014 -90 -90   XYZ
    dof rx rz
    limits (-90.0 90.0)
           (-45.0 45.0)
  end
  begin
     id 29
     name rfingers
     direction -1 -4.48953e-011 7.69687e-026   
     length 0.520971   
     axis -4.91126e-014 -90 -90   XYZ
    dof rx
    limits (0.0 90.0)
  end
  begin
     id 30
     name rthumb
     direction -0.707107 -6.3494e-011 0.707107   
     length 0.748013   
     axis -90 -45 -2.85299e-015   XYZ
    dof rx rz
    limits (-45.0 45.0)
           (-45.0 45.0)
  end
:hierarchy
  begin
    root lhipjoint rhipjoint lowerback
    lhipjoint lfemur
    lfemur ltibia
    ltibia lfoot
    lfoot ltoes
    rhipjoint rfemur
    rfemur rtibia
    rtibia rfoot
    rfoot rtoes
    lowerback upperback
    upperback thorax
    thorax lowerneck lclavicle rclavicle
    lowerneck upperneck
    upperneck head
    lclavicle lhumerus
    lhumerus lradius
    lradius lwrist
    lwrist lhand lthumb
    lhand lfingers
    rclavicle rhumerus
    rhumerus rradius
    rradius rwrist
    rwrist rhand rthumb
    rhand rfingers
  end

#!OML:ASF H:\HAZMAT1\Patient Classification 1\Patient 3\Session 1\dancer.ASF
:FULLY-SPECIFIED
:DEGREES
1
upperback -3.502920 -4.050550 0.069505
rfoot -27.795000 -19.148001
lradius 22.314100
lthumb 7.578380 50.423000
rradius 24.962299
lwrist -17.012501
rhand -18.579399 -19.114100
rhumerus -39.217999 -0.057706 -87.438904
lowerneck -5.368850 -1.832480 -2.063980
lhand -18.716900 20.578800
ltibia 42.817001
head 2.252270 -1.167960 1.235900
rwrist 12.232400
lfingers 7.125020
rtoes 7.460360
lowerback -2.544430 -3.002670 5.077320
rfingers 7.125020
lclavicle 0.000000 -0.000000
upperneck 3.971530 -2.451040 3.038390
rfemur -19.171499 14.463800 23.849400
thorax -2.537470 -2.152360 -2.763290
rclavicle 0.000000 -0.000000
rtibia 40.596500
lfoot -24.240601 2.400200
lhumerus -35.560501 1.358000 83.956703
rthumb 7.711150 -48.953499
root 16.037399 18.707300 41.460499 5.493050 6.665860 -3.042670
ltoes 13.410300
lfemur -21.672600 -18.023199 -18.061300
2
upperback -3.514980 -3.992860 0.051580
rfoot -27.767599 -19.211100
lradius 22.298201
lthumb 9.108950 49.912899
rradius 24.917400
lwrist -17.015499
rhand -18.606701 -19.089100
rhumerus -39.043201 -0.014725 -87.464996
lowerneck -5.464720 -1.826000 -1.941330
lhand -17.131001 20.129601
ltibia 42.821499
head 2.223990 -1.163920 1.209550
rwrist 12.330000
lfingers 7.125020
rtoes 7.494190
lowerback -2.513020 -2.960440 5.111220
rfingers 7.125020
lclavicle -0.000000 -0.000000
upperneck 3.841060 -2.446590 3.025120
rfemur -19.457300 14.474800 23.869301
thorax -2.566460 -2.125630 -2.798830
rclavicle -0.000000 -0.000000
rtibia 40.555099
lfoot -24.228201 2.468050
lhumerus -35.303398 1.150870 84.050697
rthumb 7.684790 -48.929501
root 16.016100 18.712299 41.468300 5.778010 6.736700 -3.054510
ltoes 13.372800
lfemur -22.005100 -18.151699 -17.863899
3
upperback -3.394810 -3.949890 0.077024
rfoot -27.752001 -19.128201
lradius 22.291000
lthumb 9.195650 49.883400
rradius 25.067200
lwrist -17.020100
rhand -18.688000 -19.087999
rhumerus -38.779701 -0.064781 -87.521797
lowerneck -5.558700 -1.845360 -1.939180
lhand -17.041100 20.103901
ltibia 42.795898
head 2.229570 -1.175130 1.213020
rwrist 12.233900
lfingers 7.125020
rtoes 7.550670
lowerback -2.726690 -2.917390 5.046190
rfingers 7.125020
lclavicle 0.000000 0.000000
upperneck 3.802920 -2.471300 3.041500
rfemur -19.656601 14.362800 23.925800
thorax -2.311270 -2.094120 -2.754060
rclavicle 0.000000 0.000000
rtibia 40.494801
lfoot -24.289101 2.654550
lhumerus -35.192600 1.233340 84.114700
rthumb 7.606280 -48.931198
root 15.987800 18.717199 41.492298 6.032130 6.767550 -3.062200
ltoes 13.157200
lfemur -22.217699 -18.332199 -17.684700
4
upperback -3.240370 -3.871370 0.034215
rfoot -27.773300 -18.974400
lradius 22.331900
lthumb 10.788200 49.573502
rradius 25.019199
lwrist -16.669701
rhand -18.212000 -19.267599
rhumerus -38.734299 -0.618485 -87.517502
lowerneck -5.715780 -1.856130 -1.752430
lhand -15.390400 19.870600
ltibia 42.784302
head 2.206250 -1.183510 1.160750
rwrist 12.738700
lfingers 7.125020
rtoes 7.622210
lowerback -2.796310 -2.851440 5.088040
rfingers 7.125020
lclavicle 0.000000 0.000000
upperneck 3.657770 -2.491970 2.986340
rfemur -19.792900 14.051800 23.949699
thorax -2.111380 -2.048920 -2.831370
rclavicle 0.000000 0.000000
rtibia 40.455399
lfoot -24.336500 2.820290
lhumerus -35.076698 1.445700 84.136200
rthumb 8.065700 -49.093601
root 15.965300 18.721001 41.517502 6.233140 6.932220 -3.043120
ltoes 13.048600
lfemur -22.389299 -18.639500 -17.569000
5
upperback -3.206400 -3.855660 0.042954
rfoot -27.769699 -18.835899
lradius 22.311701
lthumb 10.842200 49.519100
rradius 25.141399
lwrist -16.845600
rhand -18.251900 -19.251801
rhumerus -38.622700 -0.742032 -87.622101
lowerneck -5.670760 -1.845640 -1.756080
lhand -15.334400 19.818899
ltibia 42.735401
head 2.224110 -1.177650 1.154690
rwrist 12.698600
lfingers 7.125020
rtoes 7.651470
lowerback -2.911000 -2.834690 5.032120
rfingers 7.125020
lclavicle 0.000000 0.000000
upperneck 3.739050 -2.478830 2.962850
rfemur -20.047501 13.837200 23.908400
thorax -2.005850 -2.036690 -2.799220
rclavicle 0.000000 0.000000
rtibia 40.446899
lfoot -24.336399 2.878750
lhumerus -35.037701 1.788750 84.122498
rthumb 8.027260 -49.079300
root 15.939200 18.726601 41.539299 6.519560 6.999300 -2.969110
ltoes 12.871400
lfemur -22.636499 -18.712099 -17.472900
